<svg width="48" version="1.1" xmlns="http://www.w3.org/2000/svg"
      xmlns:xlink="http://www.w3.org/1999/xlink"
      preserveAspectRatio="xMidYMid meet" viewBox="654 254 245 235">

      <g data-item-type="image" data-item="Image" data-logo-item=""
        id="logo__item--logo_0" class="logo__item">
        <g class="logo__item__inner"
          transform="translate(623.3714513841015 230) scale(1.9949917289845363 1.9949917289845363) rotate(0 0 0)">
          <g>
            <polygon fill="#526ed3"
              points="77,67.7 77,13.9 77,14 77,13.7 17.2,118.5 17.8,118.3"
              data-part-id="logo__item--logo_0__0"></polygon>
            <polygon fill="#8096e5"
              points="77,14 77,13.9 77,67.7 77,67.7 77,67.8 136.1,118.3 136.8,118.5"
              data-part-id="logo__item--logo_0__1"></polygon>
            <polygon fill="#4ABEE6"
              points="77,67.7 17.8,118.3 18.2,118.2 77,96.3 77,67.8 77,67.8 77,67.7"
              data-part-id="logo__item--logo_0__2"></polygon>
            <path fill="#BDE2F4"
              d="M77,67.8v28.5l0,0v0.1l58.4,21.7l0.7,0.2L77,67.8L77,67.8z"
              data-part-id="logo__item--logo_0__3"></path>
            <polygon fill="#93C06A"
              points="77,96.3 18.2,118.2 17.8,118.3 17.2,118.5 17.1,118.6 17.3,118.7 17.4,118.7 17.8,118.8 77,129.9    77,96.3 77,96.4 77,96.3  "
              data-part-id="logo__item--logo_0__4"></polygon>
            <polygon fill="#DBE9CA"
              points="136.8,118.5 136.8,118.5 136.1,118.3 135.5,118 77,96.4 77,96.3 77,130 136.2,118.8 136.5,118.8    136.7,118.7 136.9,118.7  "
              data-part-id="logo__item--logo_0__5"></polygon>
          </g>
        </g>
      </g>
    </svg>